name Walk1.mot
datacolumns 19
datarows 10
range 4.22500000 4.27000000
endheader

                time	   L_ground_force_vx	   L_ground_force_vy	   L_ground_force_vz	   L_ground_force_px	   L_ground_force_py	   L_ground_force_pz	   R_ground_force_vx	   R_ground_force_vy	   R_ground_force_vz	   R_ground_force_px	   R_ground_force_py	   R_ground_force_pz	   L_ground_torque_x	   L_ground_torque_y	   L_ground_torque_z	   R_ground_torque_x	   R_ground_torque_y	   R_ground_torque_z	
          4.22500000	          0.00000000	          0.00000000	          0.00000000	          0.00000000	          0.00000000	          0.00000000	          4.37403236	         16.86315897	          0.57695557	          0.14234948	          0.00000000	          0.04638188	          0.00000000	         -0.00000000	          0.00000000	          0.00000000	         -1.22454798	          0.00000000	
          4.23000000	          0.00000000	          0.00000000	          0.00000000	          0.00000000	          0.00000000	          0.00000000	          1.90778105	          5.59090799	          0.78589996	          0.10564864	          0.00000000	          0.03405626	          0.00000000	          0.00000000	          0.00000000	          0.00000000	         -0.69575813	          0.00000000	
          4.23500000	          0.00000000	          0.00000000	          0.00000000	          0.00000000	          0.00000000	          0.00000000	          0.17533945	         -2.07994143	          0.85773677	          0.07375757	          0.00000000	          0.02345864	          0.00000000	          0.00000000	          0.00000000	          0.00000000	         -0.30162938	          0.00000000	
          4.24000000	          0.00000000	          0.00000000	          0.00000000	         -0.00000000	          0.00000000	         -0.00000000	         -0.94950902	         -6.83461034	          0.83596771	          0.04747311	          0.00000000	          0.01480730	          0.00000000	          0.00000000	          0.00000000	          0.00000000	         -0.02502702	          0.00000000	
          4.24500000	          0.00000000	          0.00000000	          0.00000000	         -0.00000000	          0.00000000	         -0.00000000	         -1.59575787	         -9.34315237	          0.75589270	          0.02686285	          0.00000000	          0.00808828	          0.00000000	          0.00000000	          0.00000000	          0.00000000	          0.15433206	          0.00000000	
          4.25000000	          0.00000000	          0.00000000	         -0.00000000	         -0.00000000	          0.00000000	         -0.00000000	         -1.88397958	        -10.21290139	          0.64476018	          0.01152136	          0.00000000	          0.00313982	          0.00000000	          0.00000000	          0.00000000	          0.00000000	          0.25714576	          0.00000000	
          4.25500000	          0.00000000	          0.00000000	         -0.00000000	         -0.00000000	          0.00000000	         -0.00000000	         -1.91981058	         -9.96293758	          0.52250031	          0.00077196	          0.00000000	         -0.00028185	          0.00000000	          0.00000000	          0.00000000	          0.00000000	          0.30274107	          0.00000000	
          4.26000000	          0.00000000	          0.00000000	         -0.00000000	         -0.00000000	          0.00000000	         -0.00000000	         -1.79095450	         -9.01469273	          0.40277396	         -0.00618247	          0.00000000	         -0.00245382	          0.00000000	          0.00000000	          0.00000000	          0.00000000	          0.30803730	          0.00000000	
          4.26500000	          0.00000000	          0.00000000	         -0.00000000	         -0.00000000	          0.00000000	         -0.00000000	         -1.56667875	         -7.69364848	          0.29414123	         -0.01015326	          0.00000000	         -0.00365259	          0.00000000	          0.00000000	          0.00000000	          0.00000000	          0.28707165	          0.00000000	
          4.27000000	          0.00000000	          0.00000000	         -0.00000000	         -0.00000000	          0.00000000	         -0.00000000	         -1.29894970	         -6.23801383	          0.20121414	         -0.01189665	          0.00000000	         -0.00413246	          0.00000000	          0.00000000	          0.00000000	          0.00000000	          0.25092288	          0.00000000	
